<svg xmlns="http://www.w3.org/2000/svg">
  <defs>
    <svg id="back" xmlns="http://www.w3.org/2000/svg" fill="none" viewBox="0 0 9 15"><path fill="#FFFAB9" d="M3 6V3h3v3zM6 3V0h3v3zM0 9V6h3v3zM3 12V9h3v3zM6 15v-3h3v3z"/></svg>
    <svg id="close" xmlns="http://www.w3.org/2000/svg" fill="none" viewBox="0 0 15 15"><path fill="#FFFAB9" d="M9 6V3h3v3zM3 6V3h3v3zM12 3V0h3v3zM0 3V0h3v3zM6 9V6h3v3zM9 12V9h3v3zM3 12V9h3v3zM12 15v-3h3v3zM0 15v-3h3v3z"/></svg>
    <svg id="google-play-point" xmlns="http://www.w3.org/2000/svg" viewBox="0 0 20 20" fill="none"><path fill="#34A853" d="M8 0h4v1.333H8z"/><path fill="#EA4335" d="M8 18.667h4V20H8zM6.667 17.333h6.667v1.333H6.667zM5.333 16h9.333v1.333H5.333z"/><path fill="#00E676" d="M5.333 14.667h9.333V16H5.333z"/><path fill="#EA4335" d="M5.333 13.333h8v1.333h-8zM10.667 12H12v1.333h-1.333zM6.667 12h2.667v1.333H6.667zM4 14.667h10.667V16H4z"/><path fill="#4285F4" d="M2.667 5.333h2.667v1.333H2.667zM1.333 6.667h5.333V8H1.333z"/><path fill="#FBBC04" d="M13.333 6.667h5.333V8h-5.333zM13.333 12h5.333v1.333h-5.333zM14.667 13.333h2.667v1.333h-2.667zM12 8h8v1.333h-8zM13.333 9.333H20v1.333h-6.667zM12 10.667h8V12h-8zM13.333 5.333h4v1.333h-4z"/><path fill="#4285F4" d="M0 8h8v1.333H0zM0 9.333h6.667v1.333H0z"/><path fill="#40C4FF" d="M0 10.667h6.667V12H0z"/><path fill="#4285F4" d="M0 10.667h8V12H0zM1.333 12h5.333v1.333H1.333zM2.667 13.333h2.667v1.333H2.667z"/><path fill="#34A853" d="M6.667 1.333h6.667v1.333H6.667zM5.333 2.667h9.333V4H5.333zM5.333 4h9.333v1.333H5.333z"/><path fill="#569893" d="M4 4h1.333v1.333H4z"/><path fill="#34A853" d="M14.667 4H16v1.333h-1.333zM13.333 5.333h1.333v1.333h-1.333zM12 6.667h1.333V8H12z"/><path fill="#FF8236" d="M12 12h1.333v1.333H12zM13.333 13.333h1.333v1.333h-1.333zM14.667 14.667H16V16h-1.333z"/><path fill="#34A853" d="M5.333 5.333h8v1.333h-8zM8 6.667h1.333V8H8zM10.667 6.667H12V8h-1.333z"/><path fill="#569893" d="M5.333 5.333h1.333v1.333H5.333zM6.667 6.667H8V8H6.667z"/></svg>
    <svg id="menu" xmlns="http://www.w3.org/2000/svg" fill="none" viewBox="0 0 16 13"><path fill="#FFFAB9" d="M0 3V0h16v3zM0 8V5h16v3zM0 13v-3h16v3z"/></svg>
    <svg id="menu-about" fill="none" viewBox="0 0 47 41"><g fill="#26409E"><path d="M18.071 36.8h-4.928V40h8.214v-9.6h-3.286zm-11.5-6.4v3.2h3.286v-3.2zm3.286 3.2v3.2h3.286v-3.2zM0 3.2v24h3.286v-24zM42.714 0H3.286v3.2h39.428zM3.286 27.2v3.2H6.57v-3.2zm18.071 3.2h21.357v-3.2H21.357zM42.714 3.2v24H46v-24zM13.143 13h3v3.33h-3zm8 0h3v3h-3z"/><path d="M20.143 13h13v3.33h-13z"/></g></svg>
    <svg id="menu-arrows" viewBox="0 0 57 13"><path d="M48 2h4v8h-4zm4 2h4v4h-4zM36 4h8v4h-8zm8-4h4v12h-4zM8 2H4v8h4zM4 4H0v4h4zm16 0h-8v4h8zm-8-4H8v12h4z" fill="#26409E"/></svg>
    <svg id="menu-arrows-2" viewBox="0 0 57 13"><path fill="#26409E" d="M48 2h4v8h-4zm4 2h4v4h-4zM36 4h8v4h-8zm8-4h4v12h-4z"/><path fill="#fff" d="M8 2H4v8h4zM4 4H0v4h4zm16 0h-8v4h8zm-8-4H8v12h4z"/></svg>
    <svg id="menu-home" viewBox="0 0 30 30"><g fill="#26409E"><path d="M13.333 27.133H0v3.324h13.333zm16.667.01H16.665v3.323h13.333v-3.323ZM16.676 3.8v3.334H20V3.8zm3.332 3.333v3.334h3.324V7.133zm3.334 3.334v3.334h3.324v-3.334zM6.676 7.133v3.334H10V7.133zm-3.344 3.334v3.334h3.324v-3.334zM13.342.466V3.8h3.324V.466zm-3.342 20V23.8h3.324v-3.334zm3.342-3.332v3.333h3.324v-3.333zm3.334 3.332V23.8H20v-3.334zM10.01 3.8v3.334h3.324V3.8z"/><path d="M3.335 13.8H0v13.334h3.335zm10 10H10v3.333h3.335zm6.666 0h-3.335v3.333h3.335zM30 13.8h-3.336v13.334H30z"/></g></svg>
    <svg id="menu-info" fill="none" viewBox="0 0 36 34"><path fill="#26409E" d="M0 3v26h3V3zm32 0v26h3V3zM16 13v11h3V13zm0-2V8h3v3zM3 0v3h29V0zm0 29v4h29v-4z"/></svg>
    <svg id="menu-pen" viewBox="0 0 16 31"><path d="M7.007 27.137H3.674v3.333h3.333zm6.666-23.333v3.334H10.34V3.804H7.007V.471H3.673v3.333H.34v23.322h3.333v-6.655h3.334v6.655h3.333V10.471h3.333v6.667h3.334V3.804zM7.007 17.138H3.673v-10h3.334z" fill="#26409E"/></svg>
    <svg id="menu-play" viewBox="0 0 21 30"><g fill="#26409E"><path d="M8.571 0H0v30h8.571l-.004-4.286H4.286V4.286H8.57zm4.287 21.429H8.572v4.286h4.286z"/><path d="M17.143 17.144h-4.286v4.286h4.286zm4.285-4.287h-4.285v4.286h4.285zm-4.285-4.285h-4.286v4.286h4.286zm-4.285-4.286H8.572v4.286h4.286z"/></g></svg>
    <svg id="menu-sound-on" viewBox="0 0 30 30"><path d="M23.877 3.729v3.333h3.333V3.73zM27.21.395V3.73h3.334V.395zm-3.333 13.334v3.333h6.667V13.73h-6.667Zm0 10v3.333h3.333V23.73h-3.333Zm3.333 3.333v3.333h3.334v-3.333zm-16.666-20H7.211v3.333h3.333zm6.668 3.333v-10h-3.334V3.73h-3.333v3.333h3.333v16.666h-3.333v3.333h3.333v3.334h3.334v-10h3.333v-10H17.21ZM3.878 17.062v-3.333h3.333v-3.333H.545v10H7.21v-3.334zm6.666 3.333H7.211v3.334h3.333z" fill="#26409E"/></svg>
    <svg id="menu-sound-off" fill="none" viewBox="0 0 31 31"><g fill="#515CBD"><path d="M7.148 4.236H3.814v3.333h3.334zM3.814.903H.48v3.333h3.334zm9.98 6.667H7.146v3.333h3.334v3.333h3.333V7.569h-.019Zm13.354 16.666h-3.334v3.333h3.334zm3.332 3.334h-3.334v3.333h3.334v-3.334Z"/><path d="M20.462.903h-3.334v3.333h-3.333v3.333h3.333v16.667h-3.333v3.333h3.333v3.334h3.334v-10h3.333v-10h-3.333zM7.128 17.57v-6.667H3.795v10h6.666v-3.334H7.128Zm6.666 3.333h-3.333v3.333h3.333z"/></g></svg>
    <svg id="menu-tap" viewBox="0 0 46 69"><path fill="#26409E" d="M15 20h3v25h-3zm3 0h3v-3h-3z"/><path fill="#fff" d="M4 17h3v-3H4zm-3-3h3v-3H1zm17-5h3V6h-3zm13 4h3v-3h-3zm3-3h3V7h-3zM15 6h3V0h-3z"/><path fill="#26409E" d="M15 65h3v-3h-3zm-3-3h3v-3h-3zm-3-3h3v-6H9zm3-14h3v-3h-3zm-3-3h3v-3H9zm-3-3h3v-3H6zm-6 0h6v-3H0z"/><path fill="#26409E" d="M0 44h3v-8H0zm6 9h3v-3H6zm-3-3h3v-6H3zm21-16h18v-3H24zm-3 5h3V20h-3zm7 2h3v-7h-3zm7 0h3v-7h-3zm7 21h3V34h-3zm-3 3h3v-3h-3zm-21 3h21v-3H18z"/></svg>
    <svg id="pause" fill="none" xmlns="http://www.w3.org/2000/svg" viewBox="0 0 11 12"><path fill="#FFFAB9" d="M7 0h4v12H7zM0 0h4v12H0z"/></svg>
    <svg id="play" fill="none" xmlns="http://www.w3.org/2000/svg" viewBox="0 0 12 12"><path fill="#FFFAB9" d="M4 2h4v8H4zM8 4h4v4H8zM0 0h4v12H0z"/></svg>
    <svg id="score-arrows" xmlns="http://www.w3.org/2000/svg" fill="none" viewBox="0 0 18 24"><path fill-rule="evenodd" clip-rule="evenodd" d="M11 24H7v-2H4v-2H2v-2H0v-2h4v2h2v2h2v2h2v-2h2v-2h2v-2h4v2h-2v2h-2v2h-3v2ZM11 16H7v-2H4v-2H2v-2H0V8h4v2h2v2h2v2h2v-2h2v-2h2V8h4v2h-2v2h-2v2h-3v2ZM11 8H7V6H4V4H2V2H0V0h4v2h2v2h2v2h2V4h2V2h2V0h4v2h-2v2h-2v2h-3v2Z" fill="#323232"/></svg>
    <svg id="rotate" width="69" height="71" fill="none" xmlns="http://www.w3.org/2000/svg"><path fill="#000" d="M25 2h2v65h-2z"/><path fill="#fff" d="M27 2h34v65H27z"/><path fill="#000" d="M61 2h2v65h-2zM61 0v2H27V0zM61 67v2H27v-2z"/><path fill="#7C81BA" d="M61 63v2H27v-2zM61 69v2H27v-2zM25 67v2h2v-2zM61 67v2h2v-2z"/><path fill="#000" d="M67 25v2H2v-2z"/><path fill="#fff" d="M67 27v34H2V27z"/><path fill="#000" d="M67 61v2H2v-2zM69 61h-2V27h2zM2 61H0V27h2zM12 21h2v2h-2zM18 13h2v2h-2zM18 11h2v2h-2zM16 9h2v2h-2zM18 15h2v2h-2zM16 17h2v2h-2zM20 13h2v2h-2zM10 15h2v6h-2zM12 13h6v2h-6z"/></svg>
  </defs>
</svg>
